<svg xmlns="http://www.w3.org/2000/svg" pointer-events="none" class="leaflet-zoom-animated" width="1120" height="616" viewBox="-93 -51 1120 616" style="transform: translate3d(-93px, -51px, 0px);"><g><path class="leaflet-interactive" stroke="#201920" stroke-opacity="1" stroke-width="2" stroke-linecap="round" stroke-linejoin="round" fill="none" d="M-82 222L-83 215L-86 212L-81 209L-82 206L-79 201L-75 201L-72 198L-70 198L-70 195L-67 196L-62 193L-60 198L-54 196L-54 198L-50 194L-49 189L-47 187L-36 187L-37 186L-34 185L-33 182L-28 181L-19 175L-10 172L-8 168L-10 162L-5 158L-7 158L-7 156L-3 155L-3 149L-7 141L-7 131L-10 128L-12 129L-11 125L-7 125L-6 123L0 123L8 119L11 122L14 121L17 123L18 120L14 117L14 115L23 89L27 91L28 90L32 93L42 93L45 95L48 92L50 92L53 89L51 73L55 68L63 67L66 61L65 58L67 56L78 56L78 60L76 61L88 74L92 76L97 75L100 79L102 78L104 81L106 81L108 89L114 97L114 102L112 104L114 108L110 113L110 118L112 122L127 125L140 125L156 136L164 137L163 140L166 144L169 153L175 161L184 160L210 164L225 162L234 164L239 169L246 170L260 176L267 174L267 178L273 179L275 176L301 165L322 166L331 163L337 158L337 156L341 152L348 149L352 145L346 136L347 131L352 124L357 124L361 128L371 130L377 126L381 119L391 119L400 114L404 105L408 103L414 103L413 102L415 99L417 101L424 97L430 98L430 96L433 99L441 99L443 97L441 90L438 89L434 82L429 80L427 76L419 75L414 82L408 78L401 78L397 81L393 77L392 73L396 71L396 67L399 62L398 61L406 44L418 50L428 42L432 42L436 38L434 34L438 28L438 24L441 21L444 12L452 3L450 -1L452 -5L449 -7L444 -6L444 -10L446 -10L447 -13L453 -19L461 -20L468 -23L476 -22L480 -24L492 -21L494 -18L498 -16L501 -18L506 -16L509 -13L508 -12L510 -12L512 -9L511 -7L516 -3L515 -1L517 -1L515 1L518 2L518 9L520 11L519 12L521 14L521 18L523 18L522 21L526 27L527 36L530 37L529 44L533 49L543 48L543 50L546 52L551 51L552 54L553 53L556 56L555 57L560 61L565 61L563 65L564 68L566 68L567 71L565 75L569 81L586 81L587 78L590 77L593 73L596 74L605 69L612 70L613 68L615 68L612 71L610 71L609 75L612 81L604 88L605 91L603 93L603 99L601 101L602 104L597 111L597 115L593 118L593 122L591 125L579 120L572 127L571 126L569 128L572 141L572 151L570 157L562 161L564 165L560 161L560 159L556 157L554 165L552 167L550 165L545 172L535 173L538 178L536 182L528 180L527 181L525 179L524 180L524 176L520 176L518 178L518 182L511 189L503 193L500 195L501 196L499 196L493 201M-26 317L-29 313L-30 308L-26 306L-24 310L-20 308L-20 303L-22 300L-21 299L-26 295L-27 288L-23 284L-26 281L-30 281L-32 279L-34 267L-41 268L-51 264L-51 262L-56 263L-55 262L-58 259L-57 254L-59 251L-67 246L-70 247L-70 245L-73 246L-75 244L-70 243M294 444L292 444L292 440L290 438L294 433L288 433L286 431L283 432L279 430L276 426L273 429L271 429L269 433L265 435L263 433L261 437L258 434L256 434L256 436L254 434L250 438L245 434L241 438L237 439L235 437L234 444L236 446L236 454L233 452L230 453L230 449L228 446L223 450L219 450L217 448L218 447L215 446L215 442L207 442L206 441L208 439L207 438L209 437L208 434L210 430L205 430L203 428L203 422L201 420L203 418L194 417L192 419L188 419L190 417L188 409L191 408L190 405L195 400L195 398L198 399L198 397L201 396L200 393L202 387L201 373L200 374L198 372L198 374L196 372L195 366L193 366L193 364L191 364L190 361L187 362L185 370L182 371L176 366L168 364L163 366L162 369L150 374L146 378L146 380L142 382L131 381L126 383L126 377L125 375L120 373L121 370L118 367L115 368L115 370L111 367L103 365L97 366L96 369L92 372L92 376L90 378L88 375L88 367L82 369L81 368L81 370L69 370L64 367L60 369L59 366L57 368L58 369L56 369L53 364L47 364L46 359L44 361L41 358L39 358L35 351L31 351L32 352L29 353L25 347L20 346L17 342L15 342L12 339L12 337L11 338L5 336L2 341L3 342L1 342L-1 338L-12 333L-15 329L-22 329L-23 326L-26 325L-26 317M307 449L301 447L300 448L296 446L296 444L294 444M322 513L328 525M333 560L333 565M431 565L432 563M433 516L433 529M443 480L437 492M465 447L457 458M472 425L475 411" id="国界"/><path class="leaflet-interactive" stroke="#201920" stroke-opacity="1" stroke-width="2" stroke-linecap="butt" stroke-linejoin="round" stroke-dasharray="4,4" stroke-dashoffset="4" fill="none" d="M-70 243L-67 242L-67 240L-70 237L-70 226L-73 223L-78 222L-80 224L-82 222" id="争议"/><path class="leaflet-interactive" stroke="gray" stroke-opacity="1" stroke-width="1" stroke-linecap="round" stroke-linejoin="round" stroke-dasharray="8,4,4,4" fill="none" d="M370 441L371 442L370 441M378 437L377 436L373 440L374 442L381 442L380 436L378 437" id="港澳"/><path class="leaflet-interactive" stroke="#4190da" stroke-opacity="1" stroke-width="1" stroke-linecap="round" stroke-linejoin="round" fill="none" d="M376 439L374 439L375 438L371 434L372 437L370 442L369 443L369 441L368 444L366 444L367 445L364 442L363 445L362 444L357 447L354 446L352 447L353 448L350 449L349 448L338 451L337 453L332 455L336 462L333 465L329 465L326 460L326 454L328 450L325 449L321 451L319 450L319 448L314 447L309 450L309 448L307 449M334 454L334 454M334 454L336 456L332 456L334 454M370 441L370 441M376 439L376 439M376 439L376 439M376 439L376 439M442 385L439 386L441 386L443 389L439 391L440 395L439 398L437 398L439 400L441 398L442 399L440 401L439 400L439 402L439 400L435 400L434 401L436 403L434 403L433 406L434 405L432 405L432 403L432 407L430 407L428 409L430 409L427 412L422 411L422 416L414 424L408 424L407 429L406 428L404 432L400 432L397 434L394 433L392 435L388 433L386 437L383 436L383 434L381 438L379 436L377 438L380 438L378 440L376 439M442 385L442 385M464 354L462 354L464 356L463 359L461 359L463 363L461 365L460 364L457 368L455 368L457 370L454 369L451 373L450 378L446 380L446 382L444 382L445 385L441 387L444 384L442 385M460 249L458 251L453 252L454 255L453 254L450 259L447 260L446 257L445 260L447 260L439 267L439 269L436 272L437 273L434 274L434 276L436 278L437 277L438 280L447 285L452 296L454 306L460 310L460 312L465 317L465 320L457 317L455 319L459 322M459 322L466 328L466 332L468 334L465 331L455 334L463 342L466 342L468 344L464 346L466 348L466 353M460 249L460 249M460 249L460 249M470 212L467 215L467 217L466 216L464 218L463 217L463 219L457 221L456 220L456 218L461 217L461 213L463 213L458 212L457 209L460 208L462 204L464 204L466 200L465 199L467 199L469 195L464 190L455 190L455 192L453 192L449 200L445 202L444 201L438 204L438 206L436 206L436 211L431 216L428 215L426 219L421 214L419 216L419 220L418 219L416 223L418 227L420 226L420 229L427 231L430 230L434 235L435 234L435 236L432 237L431 239L432 242L434 242L436 245L441 244L441 241L443 241L446 238L446 236L452 234L458 238L459 237L461 240L467 238L469 240L474 241L471 246L473 245L472 248L471 247L469 249L465 247L461 250L460 249M460 249L460 249M464 354L464 354M464 354L464 354M464 354L464 354M466 353L464 354M466 353L466 353M468 342L468 342M468 342L468 342M468 342L468 342M470 343L468 342M468 342L466 342L465 340L469 340L470 343M470 343L470 343M470 339L471 338L470 339M470 339L469 338L470 339M470 212L470 212M493 201L493 203L490 206L481 206L470 212M471 332L471 332M471 332L472 333L471 332M473 331L473 331M316 448L316 448M319 455L319 455M323 469L323 469M325 490L314 486L314 476L322 469L338 466L341 468L342 472L337 476L335 483L325 490M334 459L334 459M334 454L334 454M336 455L334 453L336 453L336 455M336 464L336 464M337 456L336 457L337 456M343 518L343 518M346 503L347 502L346 503M347 510L347 510M347 510L347 510M348 509L348 509M348 512L348 514L348 512M348 509L348 509M349 509L349 509M349 513L350 512L349 513M349 510L350 509L349 510M350 515L350 515M352 512L353 511L352 512M355 507L355 507M355 519L355 519M355 504L355 504M356 505L356 505M356 506L356 506M357 512L357 512M357 447L358 448L357 447M358 516L357 515L359 515L358 516M358 510L359 509L358 510M359 448L359 448M360 511L360 511M360 447L359 448L360 447M360 512L360 512M361 508L361 508M361 448L361 446L361 448M362 448L362 448M362 506L362 506M364 474L364 474M364 445L364 445M365 444L365 444M365 445L365 445M366 444L366 444M370 442L370 442M371 444L371 444M372 520L372 520M372 443L372 443M372 444L372 444M372 444L373 443L372 444M373 438L373 438M373 442L373 442M373 478L374 477L373 478M373 441L375 439L376 440L373 441M373 522L373 522M374 519L374 519M374 518L375 517L374 518M375 522L375 522M376 515L377 516L376 515M377 441L376 440L377 441M377 444L377 444M377 440L378 441L377 440M377 443L377 443M378 515L378 515M378 443L378 443M378 522L378 522M378 441L378 441M378 521L378 521M379 437L379 437M379 439L379 439M380 515L380 515M380 520L381 521L380 520M382 520L382 520M382 438L382 438M383 514L384 513L383 514M384 517L384 517M386 515L385 516L386 515M391 540L391 540M397 456L397 456M397 454L399 455L397 454M406 511L406 511M406 459L406 459M407 458L408 461L406 460L408 460L407 458M411 425L409 425L411 425M417 525L419 526L417 525M421 413L421 413M422 413L421 412L423 412L422 413M423 414L424 413L423 414M425 412L426 413L424 414L425 412M428 217L428 217M430 215L430 215M430 215L431 216L430 215M437 428L437 428M437 404L439 404L437 404M438 426L438 426M438 423L438 423M438 423L438 423M439 398L439 398M439 392L439 392M439 424L438 425L439 424M439 398L439 398M440 398L440 398M440 386L439 385L441 385L440 386M440 402L440 402M440 402L440 402M441 386L441 386M442 399L442 399M443 392L442 391L443 392M443 394L443 394M443 425L444 424L443 425M443 391L443 391M444 387L444 387M445 387L445 387M445 386L445 386M445 383L445 383M445 264L445 264M447 382L447 382M447 439L447 439M447 382L448 381L447 382M448 235L448 235M449 389L449 389M450 233L451 232L450 233M451 444L450 439L446 436L444 430L444 422L455 406L461 402L465 404L465 412L462 417L459 431L454 437L453 445L451 444M451 232L451 232M452 233L452 233M452 230L452 230M452 196L453 195L452 196M452 228L453 227L452 228M454 226L454 226M454 227L454 227M455 255L454 254L455 255M455 368L455 368M455 375L455 375M456 369L455 368L456 369M457 368L457 368M459 318L466 322L461 322L457 319L458 317L459 318M460 308L460 308M460 435L461 436L460 435M461 442L462 443L461 442M462 444L462 444M462 323L461 322L462 323M463 354L463 354M463 359L463 359M464 325L461 323L463 323L464 325M464 324L467 325L464 324M464 341L464 341M464 358L465 357L464 358M464 358L464 358M465 362L465 362M465 341L464 342L465 341M465 325L465 325M465 362L465 362M465 401L465 401M465 408L465 408M465 340L466 341L465 340M465 326L466 327L465 326M466 338L466 338M466 353L466 353M467 345L466 346L467 345M467 343L467 343M467 340L466 339L467 340M467 334L467 334M467 343L467 343M467 342L467 342M467 342L467 342M468 342L468 342M468 339L468 339M468 338L469 339L468 338M468 339L468 339M468 350L468 350M468 346L467 345L468 346M468 346L468 346M469 343L468 342L469 343M469 344L470 345L469 344M469 344L470 343L469 344M469 346L468 345L470 345L469 346M470 343L471 344L470 343M470 215L470 215M471 342L471 342M471 337L470 336L471 337M472 336L472 336M472 214L472 214M473 213L474 214L473 213M473 333L473 333M474 214L474 214M475 340L475 340M475 217L475 217M475 333L475 333M476 333L475 332L476 333M478 209L477 210L478 209M478 211L478 211M479 217L480 216L479 217M481 397L484 398L480 398L481 397M484 396L484 396M484 394L486 394L484 394M484 399L485 398L484 399M484 397L484 397M485 398L485 398M486 206L486 206M494 394L496 394L494 394" id="海洋"/><path class="leaflet-interactive" stroke="#747569" stroke-opacity="0.6" stroke-width="1" stroke-linecap="round" stroke-linejoin="round" fill="none" d="M99 259L86 254L74 256L72 254L70 256L60 258L57 263L52 265L48 263L41 266L38 269L29 270L24 269L22 265L19 266L16 264L15 267L13 267L11 269L12 270L9 271L1 269L-9 270L-8 271L-12 275L-11 276L-13 276L-13 280L-15 282L-22 282L-23 284M190 308L187 307L186 312L185 311L183 315L179 315L179 320L176 319L175 316L173 316L172 321L172 319L170 318L168 320L166 318L165 319L163 315L164 314L161 311L160 312L162 310L158 310L154 306L151 309L142 309L136 305L128 306L119 300L115 301L106 298L105 296L103 296L103 294L98 288L101 284L99 280L100 275L97 276L96 270L100 264L95 261L99 259M129 217L115 222L109 222L103 226L106 229L107 227L108 236L110 236L116 242L117 245L110 249L110 251L114 253L115 258L113 260L103 257L99 259M236 295L234 295L233 292L230 293L229 290L226 289L225 284L226 283L233 285L235 287L238 287L239 284L241 284L241 282L238 281L238 277L243 272L242 268L243 269L244 266L248 266L246 264L248 262L249 263L249 259L251 257L248 256L248 254L245 251L247 249L244 246L246 244L239 238L239 236L236 237L233 234L231 235L228 232L226 232L224 228L220 228L216 224L218 228L217 229L202 216L200 218L197 217L194 221L183 214L181 216L182 223L178 225L178 229L175 228L173 230L167 226L165 228L161 226L154 227L152 221L147 222L145 220L146 219L139 219L138 215L129 217M175 161L170 165L172 172L169 175L165 176L162 179L160 176L156 180L154 180L145 189L145 193L135 194L133 208L129 214L129 217M265 240L263 240L258 235L254 234L256 228L255 227L260 223L261 219L264 218L262 211L255 212L250 216L244 214L240 215L237 216L239 220L236 222L231 221L229 218L230 217L227 218L225 216L225 211L221 212L219 208L212 204L209 204L218 199L219 193L216 189L206 190L206 192L204 191L202 192L202 194L201 191L199 191L200 193L197 194L197 189L189 181L191 178L184 160M206 352L204 346L204 332L200 326L200 324L203 324L199 320L198 315L195 311L190 308M236 295L234 301L231 298L228 299L230 305L228 307L223 308L220 305L218 307L214 301L213 306L204 301L197 287L193 287L192 285L189 286L190 287L186 291L186 294L190 296L187 300L188 301L186 305L190 308M195 366L196 363L198 367L201 364L200 355L202 355L203 358L205 354L204 353L206 352M276 372L275 367L268 370L265 367L267 365L264 363L265 360L260 359L260 363L255 366L255 371L251 376L249 375L248 380L251 387L247 391L245 389L240 393L235 390L234 391L235 390L232 387L233 384L231 384L232 383L227 377L225 371L223 369L220 370L220 372L218 370L216 366L218 364L213 359L213 357L211 357L209 365L206 362L206 352M278 303L276 307L270 307L268 305L267 306L264 303L266 302L266 298L263 295L263 293L255 291L254 292L248 284L245 287L243 287L243 289L240 288L244 295L241 296L240 299L237 300L236 299L238 296L236 295M303 234L300 233L299 230L290 228L295 218L293 212L291 212L288 213L283 220L283 228L281 230L281 235L265 240M265 240L269 240L268 243L275 246L275 252L278 256L276 260L277 262L288 271L290 269L289 264L292 265L295 260L294 257L289 256L290 255L288 252L290 252L292 244L298 245M276 372L275 376L274 375L272 377L268 377L266 375L262 377L262 375L257 379L257 381L259 381L258 385L260 387L266 385L269 388L267 390L268 391L266 393L267 394L265 398L267 400L268 399L267 400L271 404L270 403L268 405L269 406L267 409M267 409L269 415L269 413L273 413L276 418L285 417L286 424L281 425L279 429M324 393L322 397L317 397L319 397L318 400L316 398L314 402L311 399L308 402L308 404L305 405L301 403L298 399L296 399L296 403L287 406L284 411L275 406L270 411L267 409M288 361L284 358L280 362L280 364L288 368L287 371L276 372M298 245L299 248L304 249L308 253L309 252L314 255L314 269L312 271L305 270L303 272L305 274L303 276L291 273L291 277L288 280L292 284L290 284L291 286L289 288L291 293L289 295L289 293L285 293L281 297L284 300L283 303L278 303M313 313L305 313L300 308L298 310L296 308L297 307L293 305L289 307L282 304L280 306L278 303M321 362L319 366L316 365L316 363L313 362L313 359L311 359L310 354L306 355L301 352L300 357L298 358L298 356L296 356L292 362L289 357L290 360L288 361M288 361L286 356L281 355L281 351L277 351L278 350L276 348L281 343L281 341L279 340L282 337L284 337L286 339L291 338L293 342L296 341L301 334L300 332L304 330L305 331L307 329L307 325L309 324L309 322L313 320L313 318L310 317L310 315L312 315L311 313L313 313M298 245L300 236L303 234M342 212L343 209L341 209L337 213L333 211L331 211L332 212L330 214L328 213L329 216L327 216L326 219L319 225L319 232L318 233L316 231L316 237L308 237L305 234L303 234M313 313L316 314L321 319L325 319M325 319L327 319L326 320L331 323L331 331L328 330L323 335L320 335L320 333L318 333L316 335L315 334L311 336L313 338L313 344L311 344L313 346L313 344L315 344L318 350L317 351L318 350L321 353M321 353L321 362M374 354L371 353L372 348L370 345L365 349L363 349L363 345L361 345L361 347L360 346L356 348L352 344L345 343L340 340L335 341L337 345L336 346L328 345L324 347L321 353M324 393L324 391L321 390L323 386L322 385L324 383L323 382L325 381L323 379L319 379L317 381L316 380L324 373L322 371L323 364L321 364L321 362M353 409L349 409L347 411L345 404L341 407L340 406L347 395L343 394L344 391L342 389L336 389L336 391L333 394L330 393L330 391L327 394L328 395L324 393M341 298L338 301L336 299L333 300L325 298L323 300L327 301L327 303L329 303L332 306L330 308L325 307L325 319M327 450L326 450M327 450L329 445L334 444L333 441L338 440L338 436L345 433L345 425L351 419L353 415L351 411L353 409M328 466L330 466M331 466L334 465M334 280L332 279L332 275L337 266L335 262L334 247L339 238L335 232L335 229L340 224L341 217L343 216L344 213L342 212M334 280L334 284L337 287L336 290L339 291L341 298M334 280L347 277L351 273L353 273L353 271L360 272L368 268L371 265L370 264L372 260L372 255M335 465L336 464M391 323L390 324L389 321L385 323L381 321L381 318L378 319L377 317L375 319L375 317L372 316L372 310L368 312L366 310L355 311L352 308L351 309L347 307L341 298M341 299L341 299M377 192L376 195L371 196L369 198L367 198L367 196L364 197L362 200L358 198L353 203L350 209L347 208L342 212M353 409L354 404L360 404L360 406L363 407L364 403L362 403L365 400L369 402L374 401M392 258L388 258L386 260L384 258L372 255M372 255L369 251L373 247L372 244L377 237L372 229L370 229L370 225L373 221L372 218L375 215L377 217L382 209L379 205L377 205L378 204L374 202L381 198L378 196L377 192M399 344L397 346L392 344L390 347L389 346L386 349L385 348L385 350L379 350L374 354M374 401L375 394L376 392L378 392L375 391L376 386L373 385L374 376L371 377L370 374L373 368L375 368L375 366L378 363L376 361L377 358L374 354M374 401L375 400L375 403L381 401L383 403L383 405L379 407L380 408L378 410L380 412L389 409L396 412L395 408L397 407M435 183L425 183L422 177L422 175L424 175L424 171L423 172L420 169L421 166L418 163L414 163L414 165L410 165L408 167L407 173L404 174L402 172L398 176L397 173L393 175L390 178L391 179L385 179L385 171L381 170L381 172L377 176L378 179L374 181L375 184L373 186L377 192M400 280L400 282L403 285L404 284L405 289L400 292L398 288L395 287L393 289L394 294L390 296L390 300L385 301L390 308L394 310L396 308L397 309L397 317L395 319L394 318L391 321L391 323M399 344L399 340L395 333L398 329L391 323M419 228L418 231L416 231L414 234L406 235L403 239L402 238L400 240L401 241L399 241L396 244L397 245L390 252L392 258M400 280L392 280L392 278L390 276L389 277L388 274L384 274L386 270L388 268L389 269L391 265L394 264L399 259L391 263L390 261L392 258M397 407L396 404L398 402L398 398L400 396L399 395L401 395L403 393L402 390L404 388L405 389L404 382L411 378L411 374L409 374L409 372L410 373L415 368L418 371L418 369L424 367L425 364M411 424L408 417L408 413L406 411L407 410L404 411L402 409L403 408L400 409L401 408L397 407M423 350L421 348L417 348L412 343L410 345L411 346L407 348L405 346L408 343L406 341L401 345L399 344M402 279L400 280M435 274L431 274L430 277L428 279L427 278L424 283L422 283L422 279L418 279L418 281L415 282L413 280L411 282L408 275L403 276L402 279M439 327L435 325L430 326L429 325L431 322L427 318L426 319L425 316L425 314L428 313L429 310L427 308L428 307L433 309L434 304L431 302L429 306L425 306L423 304L423 300L420 299L423 292L417 292L417 288L411 287L407 282L405 282L402 279M414 199L412 197L414 193L409 192L406 189L406 187L402 189L403 191L395 195L397 200L391 203L393 205L392 208L396 210L401 209L401 211L403 211L402 210L404 208L407 208M416 223L413 224L406 221L406 217L408 217L407 208M408 207L407 208M408 207L411 208L412 201M412 201L406 203L409 206L408 207M411 424L412 425M414 199L412 201M413 426L414 427M414 199L418 201L418 203L416 203L415 206L417 210L420 209L419 212L421 214M423 350L431 343L431 337L437 337L435 335L439 331L439 327M423 350L421 354L425 358L425 364M449 379L445 375L441 377L438 372L435 375L431 375L431 371L429 369L430 366L428 364L425 364M435 183L437 180L435 178L435 168L438 167L442 169L443 175L445 177L445 175L451 169L455 169L459 165L462 166L467 161L470 162L471 159L473 161L480 160L479 159L481 157L485 156L485 151M442 203L440 201L439 196L434 194L434 192L433 193L430 190L435 183M454 328L451 329L451 331L449 332L447 330L448 329L445 330L441 326L439 327M451 380L452 381M453 226L456 226M466 320L460 319L458 317L456 319L459 321L456 324L457 325L453 327L454 328M458 333L454 328M459 333L461 333M482 93L481 96L480 95L479 97L477 97L475 93L476 92L473 91L471 87L491 67L493 69L492 70L494 74L495 73L495 65L498 56L503 55L503 39L505 39L504 38L506 34L510 31L509 28L512 25L512 23L506 14L501 11L501 13L497 17L494 16L494 18L488 18L486 16L481 19L478 17L477 18L473 4L475 0L473 0L468 -5L465 0L457 -7L462 -11L464 -15L460 -20M461 333L462 333M464 332L465 332M466 331L468 331M470 330L472 330M474 330L475 329M572 149L567 150L564 147L562 147L561 142L557 144L556 141L550 145L549 144L548 147L544 149L540 139L540 135L538 133L537 136L535 136L536 138L532 140L528 134L529 133L527 131L523 131L524 126L522 123L518 121L512 123L508 120L507 117L505 119L501 119L501 117L495 119L489 113L490 112L488 110L488 104L482 106L479 105M479 105L477 100L485 97L485 95L484 94L484 96L482 93M479 105L478 108L475 108L475 114L473 114L470 110L469 113L465 109L463 109L464 110L462 113L466 115L469 122L467 124L467 132L470 138L472 138L478 133L479 136L481 137L481 141L484 147L481 148L481 150L485 151M482 93L482 93M482 93L482 93M482 93L482 93M485 151L486 150L489 153L490 152L494 159L498 155L499 156L498 157L503 167L502 168L506 170L504 172L504 178L506 178L506 182L509 185L507 189L508 190M283 269L284 268L283 269M324 384L324 384M363 345L363 345" id="省界"/><path class="leaflet-interactive" stroke="#3388ff" stroke-opacity="0" stroke-width="3" stroke-linecap="round" stroke-linejoin="round" fill="#eee" fill-opacity="0.5" fill-rule="evenodd" d="M413 194L415 193L408 192L406 187L403 188L403 190L395 195L397 198L391 203L393 205L392 208L396 210L401 209L402 211L405 208L406 209L409 206L406 203L411 202L414 199L412 197L413 194z" id="北京市"/><path class="leaflet-interactive" stroke="#3388ff" stroke-opacity="0" stroke-width="3" stroke-linecap="round" stroke-linejoin="round" fill="#eee" fill-opacity="0.5" fill-rule="evenodd" d="M418 212L420 210L417 210L415 206L415 204L418 203L418 201L415 199L411 202L411 208L407 208L408 217L406 217L406 221L413 224L416 223L418 221L417 220L419 220L419 216L421 214L419 212L415 212L417 211zM418 212L419 211L418 212z" id="天津市"/><path class="leaflet-interactive" stroke="#3388ff" stroke-opacity="0" stroke-width="3" stroke-linecap="round" stroke-linejoin="round" fill="#eee" fill-opacity="0.5" fill-rule="evenodd" d="M415 193L412 194L412 198L418 202L415 203L417 208L416 209L420 209L419 212L426 219L428 215L431 216L436 211L435 210L437 205L442 202L439 199L438 195L435 195L434 192L433 193L430 190L435 183L425 183L422 177L423 175L424 176L424 172L422 172L421 167L417 163L409 165L407 173L404 174L402 172L398 176L396 173L390 178L391 179L385 179L385 171L381 170L381 172L377 176L378 179L374 180L374 186L378 196L381 197L375 202L376 204L380 205L381 211L377 217L374 216L373 222L370 224L370 228L374 231L377 237L372 244L373 248L369 250L370 254L376 257L380 257L382 259L385 258L385 260L388 257L390 259L392 258L390 253L396 247L395 246L398 241L400 241L401 238L403 240L407 234L414 234L418 230L420 227L418 227L415 223L413 224L406 221L406 217L408 217L407 208L405 208L402 211L400 209L395 210L393 208L392 209L393 205L391 203L397 199L395 194L403 191L403 188L406 187L406 189L409 192L415 193zM412 201L406 203L409 206L409 208L411 208L411 202zM418 212L415 212L418 212zM430 215L430 216z" id="河北省"/><path class="leaflet-interactive" stroke="#3388ff" stroke-opacity="0" stroke-width="3" stroke-linecap="round" stroke-linejoin="round" fill="#eee" fill-opacity="0.5" fill-rule="evenodd" d="M334 280L347 277L350 274L353 274L354 271L361 272L371 265L370 264L372 260L372 254L370 254L369 251L372 248L372 245L377 237L373 230L370 229L370 225L373 221L372 218L376 215L376 217L378 216L382 209L374 202L381 198L378 196L376 192L374 196L373 195L369 198L365 197L362 200L358 198L356 199L350 209L347 208L342 212L343 215L340 224L335 229L339 237L337 243L334 246L336 267L332 276L333 280z" id="山西省"/><path class="leaflet-interactive" stroke="#3388ff" stroke-opacity="0" stroke-width="3" stroke-linecap="round" stroke-linejoin="round" fill="#eee" fill-opacity="0.5" fill-rule="evenodd" d="M184 160L191 178L189 180L196 189L197 194L200 193L201 191L202 194L202 192L204 191L206 193L206 191L216 189L219 193L218 199L210 204L219 207L221 212L224 211L226 216L225 217L230 217L229 218L232 221L236 222L239 219L237 216L243 214L249 216L255 212L262 211L264 218L260 223L255 226L256 230L254 231L255 234L262 240L280 236L282 234L281 230L283 228L282 225L285 216L291 212L293 212L295 217L290 227L291 229L298 230L301 233L307 235L307 237L316 237L316 231L318 233L319 232L317 229L329 215L328 214L332 213L332 211L334 213L338 213L339 210L341 209L343 209L342 212L345 211L346 208L350 209L352 207L354 201L357 198L362 200L364 197L368 198L376 194L376 190L373 186L375 184L374 181L378 180L377 176L381 172L381 170L384 171L386 174L385 179L391 179L390 178L396 173L399 176L402 172L404 174L407 173L408 167L410 165L418 163L421 166L420 169L422 170L422 172L424 172L424 176L422 176L424 181L429 183L435 183L437 181L435 178L435 170L437 167L439 169L442 169L441 170L444 177L453 168L456 169L459 165L462 166L467 161L470 162L470 160L474 160L476 162L480 159L480 157L485 156L485 151L481 149L483 149L483 145L479 133L474 137L469 137L469 133L467 131L467 123L469 121L466 115L462 113L464 111L463 109L465 109L468 112L471 111L474 114L476 111L475 108L479 107L477 100L485 97L483 93L481 93L481 96L480 95L479 97L477 97L475 93L476 92L471 88L472 84L480 79L492 67L494 74L495 73L495 67L498 56L503 55L502 42L504 40L503 39L505 39L504 38L506 34L510 31L509 28L512 25L512 21L510 21L506 14L501 11L501 13L497 17L495 16L493 18L488 18L486 16L481 19L478 17L476 15L473 4L475 0L468 -4L464 0L457 -7L462 -11L464 -15L463 -17L460 -20L454 -19L444 -9L445 -6L449 -7L451 -5L450 -2L452 0L452 5L444 12L442 16L443 17L438 24L438 28L434 34L436 38L432 42L428 42L418 50L406 44L398 61L399 62L396 66L396 71L392 73L393 77L397 81L401 78L407 78L414 82L419 75L426 76L441 90L443 96L440 99L434 99L431 96L428 98L425 97L418 101L415 99L413 103L404 104L401 112L394 118L382 119L379 124L371 130L362 128L357 124L352 124L346 134L347 139L351 142L352 146L341 152L334 161L321 166L301 165L281 173L275 176L273 179L267 178L267 174L260 176L247 170L240 169L234 164L226 162L210 164L191 162L185 160z" id="内蒙古自治区"/><path class="leaflet-interactive" stroke="#3388ff" stroke-opacity="0" stroke-width="3" stroke-linecap="round" stroke-linejoin="round" fill="#eee" fill-opacity="0.5" fill-rule="evenodd" d="M484 206L491 206L491 204L499 195L500 196L508 190L507 189L509 184L504 177L504 173L506 170L502 168L503 167L501 165L499 155L496 157L496 159L494 159L493 155L489 153L487 149L485 151L484 157L480 157L478 161L471 160L471 162L465 162L463 166L460 165L455 169L454 168L450 170L445 175L445 177L442 173L442 169L438 167L435 169L435 178L437 179L437 181L435 182L431 190L433 193L434 192L435 195L438 194L439 198L443 203L449 199L453 192L455 192L454 191L457 190L464 189L466 193L468 193L469 195L467 197L468 198L465 199L465 202L457 210L460 213L463 212L461 214L462 215L456 219L456 221L461 220L462 217L465 218L464 217L466 217L468 215L467 214L471 211L483 206zM473 213L473 213zM470 215L471 214L470 215zM474 214L474 214zM474 217L475 217zM478 209L478 210zM472 214L472 214zM452 196L453 195L452 196zM478 211L478 211zM479 217L480 216L479 217zM486 206L486 206z" id="辽宁省"/><path class="leaflet-interactive" stroke="#3388ff" stroke-opacity="0" stroke-width="3" stroke-linecap="round" stroke-linejoin="round" fill="#eee" fill-opacity="0.5" fill-rule="evenodd" d="M553 166L555 163L555 159L557 157L559 157L558 158L560 162L562 164L563 163L564 166L564 162L562 162L563 160L570 158L572 150L567 150L564 147L562 147L561 142L557 144L556 141L550 145L549 144L548 147L544 149L543 144L539 138L539 134L537 134L535 137L536 138L532 140L528 134L529 133L527 131L523 131L523 123L518 121L515 123L510 122L507 117L505 119L501 119L501 117L495 119L489 113L490 112L488 110L488 104L480 105L475 108L475 114L473 114L471 111L468 112L465 109L463 109L464 110L462 113L466 115L469 122L467 124L467 132L469 133L469 137L472 138L479 133L484 147L481 148L482 150L485 151L487 149L487 151L494 156L493 159L496 159L496 157L498 155L499 156L498 157L500 163L504 169L503 170L505 170L504 177L509 184L507 189L508 190L510 190L516 184L518 179L522 175L525 179L524 180L525 179L527 181L528 180L535 182L538 180L535 173L545 172L550 166L552 166z" id="吉林省"/><path class="leaflet-interactive" stroke="#3388ff" stroke-opacity="0" stroke-width="3" stroke-linecap="round" stroke-linejoin="round" fill="#eee" fill-opacity="0.5" fill-rule="evenodd" d="M484 106L487 104L489 106L489 112L495 119L499 117L501 117L501 119L505 119L507 117L510 122L515 123L518 121L523 123L523 131L529 132L528 133L532 140L534 140L539 133L539 138L543 143L544 149L546 149L549 144L550 145L556 141L557 144L561 141L561 145L564 148L567 150L572 150L572 141L570 130L568 128L570 126L574 126L576 122L578 122L578 120L592 125L593 118L597 114L600 108L599 107L602 104L601 101L603 98L605 90L604 89L611 81L609 76L610 71L615 69L605 69L597 74L593 74L589 77L588 76L586 81L568 81L565 75L566 67L564 68L563 65L565 61L560 61L554 55L554 53L552 53L552 51L547 52L541 48L533 49L529 44L530 37L527 35L526 27L522 22L523 18L521 18L521 14L517 6L517 0L515 -1L516 -2L513 -6L511 -6L513 -9L511 -9L509 -12L508 -11L509 -13L506 -16L502 -18L499 -16L494 -18L492 -21L490 -20L484 -24L475 -22L468 -23L461 -20L464 -15L457 -6L464 0L468 -4L475 0L473 4L477 17L481 19L486 16L488 18L494 18L494 16L496 17L500 15L499 14L501 14L502 11L507 15L510 21L512 21L512 25L509 28L510 31L503 40L503 55L498 56L495 66L495 74L492 70L493 69L490 68L479 80L473 83L471 87L475 92L476 91L475 93L477 97L479 97L482 94L481 93L483 93L484 96L484 94L485 95L484 98L478 100L479 104L484 106z" id="黑龙江省"/><path class="leaflet-interactive" stroke="#3388ff" stroke-opacity="0" stroke-width="3" stroke-linecap="round" stroke-linejoin="round" fill="#eee" fill-opacity="0.5" fill-rule="evenodd" d="M454 328L455 331L459 333L465 331L466 329L459 322L456 323L456 327L453 327zM466 320L460 319L458 317L456 319L464 323L466 322zM464 324L461 323L464 325zM464 324L467 325L464 324zM462 323L461 322zM465 326L466 326zM465 326L465 326z" id="上海市"/><path class="leaflet-interactive" stroke="#3388ff" stroke-opacity="0" stroke-width="3" stroke-linecap="round" stroke-linejoin="round" fill="#eee" fill-opacity="0.5" fill-rule="evenodd" d="M413 280L411 282L408 275L402 276L402 278L407 283L409 283L409 286L414 288L415 287L418 290L418 292L422 292L420 298L421 300L423 299L423 303L426 306L429 306L431 302L435 307L433 309L431 307L427 307L429 311L425 314L425 316L431 321L429 324L430 326L442 326L445 330L448 329L447 330L449 332L454 328L453 327L455 327L455 325L459 321L456 319L458 317L460 319L466 320L465 317L460 313L460 310L454 306L454 302L447 284L437 279L438 278L434 276L434 273L431 274L430 277L428 279L427 278L424 283L421 280L422 279L418 279L418 281L415 282L413 280z" id="江苏省"/><path class="leaflet-interactive" stroke="#3388ff" stroke-opacity="0" stroke-width="3" stroke-linecap="round" stroke-linejoin="round" fill="#eee" fill-opacity="0.5" fill-rule="evenodd" d="M426 364L430 366L429 369L431 371L431 375L435 375L439 372L441 377L445 375L449 379L451 376L451 372L457 369L455 369L455 367L456 366L456 368L461 364L462 365L461 360L464 357L462 354L466 354L465 346L468 343L462 341L459 337L457 337L455 334L458 333L454 328L451 329L451 331L449 332L447 330L448 329L445 330L442 326L440 326L438 330L439 331L435 335L437 337L431 337L431 343L421 352L426 364zM468 342L470 342L466 339L465 340L467 342zM469 339L468 340zM469 346L469 346zM471 332L472 333L471 332zM468 338L469 339L468 337zM470 339L470 338zM466 353L467 352zM470 343L471 344L470 343zM471 337L470 336zM464 358L465 357zM469 344L470 344zM464 354L464 354zM457 373L457 373zM465 332L467 334L466 331zM465 362L465 361zM468 346L467 345L468 346zM471 343L471 343zM473 333L472 333zM465 362L465 362zM467 340L466 340zM471 342L470 342zM464 342L465 341L464 342zM455 375L455 375zM466 353L466 352zM467 345L466 346zM465 340L466 341zM466 338L465 338zM468 342L468 342zM469 346L469 345zM456 371L456 371zM475 340L475 340zM469 338L470 338zM469 344L470 343zM475 333L475 332zM456 369L455 369zM457 368L457 368zM471 342L471 342zM476 333L475 332zM468 342L469 342zM466 342L467 342zM455 368L456 368zM471 343L471 343zM468 342L468 342z" id="浙江省"/><path class="leaflet-interactive" stroke="#3388ff" stroke-opacity="0" stroke-width="3" stroke-linecap="round" stroke-linejoin="round" fill="#eee" fill-opacity="0.5" fill-rule="evenodd" d="M405 288L405 290L404 289L401 292L399 292L398 289L394 287L394 294L390 296L390 300L385 301L390 308L393 310L396 308L397 310L397 317L394 318L391 321L391 323L393 326L399 329L395 332L401 345L404 341L406 341L408 343L405 346L407 348L412 343L417 348L421 347L422 350L429 345L431 342L431 338L436 337L435 334L439 330L439 328L436 325L430 325L430 320L428 320L429 319L427 319L425 316L425 314L428 313L428 307L431 307L432 309L434 309L435 307L432 302L430 302L429 305L425 306L423 304L423 300L420 299L422 291L417 292L418 290L415 287L411 287L407 282L405 282L402 279L400 283L402 285L404 284L405 288zM430 322L431 322zM406 346L406 346zM392 309L392 309z" id="安徽省"/><path class="leaflet-interactive" stroke="#3388ff" stroke-opacity="0" stroke-width="3" stroke-linecap="round" stroke-linejoin="round" fill="#eee" fill-opacity="0.5" fill-rule="evenodd" d="M432 406L431 403L433 403L433 405L433 403L436 404L436 402L434 401L435 400L439 400L439 402L442 399L441 398L439 400L437 398L440 393L439 392L442 389L441 386L439 386L440 384L441 385L444 383L443 386L441 387L445 384L444 383L448 379L448 377L446 375L442 377L438 372L436 375L430 374L430 366L426 364L422 368L418 370L416 370L416 368L413 369L413 371L409 373L411 377L408 381L404 383L405 389L404 388L402 390L403 391L399 396L396 405L399 408L403 408L402 409L404 411L407 410L406 411L408 413L409 420L413 424L422 416L422 412L427 412L430 409L428 408L432 407zM425 412L424 413L426 412zM437 404L438 403L437 404zM439 398L439 398zM443 391L443 391zM423 414L423 413zM442 385L443 385zM423 412L421 413L423 413zM443 392L442 391zM439 392L440 391L439 392zM444 387L444 387zM439 398L440 398zM441 386L441 385zM445 386L445 386zM447 382L447 381zM445 383L445 383zM440 385L439 385z" id="福建省"/><path class="leaflet-interactive" stroke="#3388ff" stroke-opacity="0" stroke-width="3" stroke-linecap="round" stroke-linejoin="round" fill="#eee" fill-opacity="0.5" fill-rule="evenodd" d="M423 350L421 348L417 348L412 343L407 348L405 346L408 343L404 341L404 343L401 345L400 344L397 346L392 344L390 347L389 346L386 349L385 348L385 350L376 352L374 354L377 357L376 360L378 364L372 369L370 374L372 377L374 376L372 380L373 379L374 381L374 386L376 386L375 391L378 392L375 393L374 401L376 401L376 403L380 401L384 403L378 410L380 412L389 409L396 412L395 408L397 408L396 404L398 402L398 398L400 396L399 395L402 394L402 391L405 388L405 382L411 378L411 375L409 373L412 372L413 369L416 368L416 370L418 370L420 368L425 367L425 357L421 354L421 352L423 351z" id="江西省"/><path class="leaflet-interactive" stroke="#3388ff" stroke-opacity="0" stroke-width="3" stroke-linecap="round" stroke-linejoin="round" fill="#eee" fill-opacity="0.5" fill-rule="evenodd" d="M402 279L402 276L408 275L412 282L414 280L414 282L416 282L419 279L421 279L423 281L422 282L425 283L425 280L427 278L428 279L431 274L436 273L440 267L439 266L441 266L447 260L445 260L446 257L447 260L451 259L451 255L453 255L455 253L454 252L460 249L461 250L465 247L468 247L467 248L470 249L473 246L471 246L474 241L469 240L467 238L465 240L462 240L457 238L457 236L453 234L446 236L446 238L443 241L441 241L442 242L440 244L436 244L432 242L431 239L432 237L435 236L435 234L434 235L431 230L426 231L419 228L414 234L406 235L403 239L402 238L400 240L401 241L399 241L396 244L396 247L390 252L392 257L390 263L391 264L392 262L399 259L398 261L392 264L384 274L387 274L392 278L392 280L402 280zM452 233L452 233zM451 232L452 232zM455 255L454 255zM452 230L452 229zM454 227L454 227zM445 264L445 263zM450 233L450 232zM452 228L453 227zM460 238L460 238zM460 238L460 238zM460 238L460 238zM392 262L392 262z" id="山东省"/><path class="leaflet-interactive" stroke="#3388ff" stroke-opacity="0" stroke-width="3" stroke-linecap="round" stroke-linejoin="round" fill="#eee" fill-opacity="0.5" fill-rule="evenodd" d="M360 311L366 310L369 312L371 310L373 313L373 317L375 317L375 319L377 317L385 323L389 321L390 324L391 321L397 317L397 308L394 310L389 308L389 304L386 303L385 300L387 301L391 298L390 295L393 294L393 289L395 287L398 289L399 292L401 292L404 289L405 290L405 288L404 285L400 282L400 280L392 280L388 274L385 274L385 272L388 268L389 269L399 260L398 259L391 263L390 261L392 260L392 258L391 259L388 257L385 260L385 258L382 259L380 257L372 255L370 263L371 266L370 265L368 268L366 268L365 270L364 269L361 272L353 271L353 273L348 275L347 277L343 277L340 278L339 280L338 279L334 281L334 284L337 287L336 290L341 294L341 300L343 300L344 304L356 311L360 310zM372 312L372 312z" id="河南省"/><path class="leaflet-interactive" stroke="#3388ff" stroke-opacity="0" stroke-width="3" stroke-linecap="round" stroke-linejoin="round" fill="#eee" fill-opacity="0.5" fill-rule="evenodd" d="M341 300L341 298L338 301L336 298L335 300L328 298L323 300L327 301L327 303L329 303L332 307L326 307L324 310L325 319L332 326L330 331L329 330L322 335L315 334L311 336L313 338L312 344L313 346L313 344L315 345L315 347L317 347L317 351L318 350L320 353L323 350L323 348L328 345L332 345L334 347L337 345L335 341L338 340L349 343L356 348L361 347L361 345L363 345L363 349L365 349L370 344L372 348L372 354L378 352L379 350L384 350L386 349L385 348L386 349L393 344L397 346L399 344L399 340L395 333L398 329L396 327L393 327L388 321L383 322L381 318L378 319L377 317L375 319L375 317L373 317L372 315L372 310L369 312L366 310L357 311L347 307L342 299zM319 334L319 334zM341 299L341 300zM360 311L361 311zM363 345L363 345z" id="湖北省"/><path class="leaflet-interactive" stroke="#3388ff" stroke-opacity="0" stroke-width="3" stroke-linecap="round" stroke-linejoin="round" fill="#eee" fill-opacity="0.5" fill-rule="evenodd" d="M353 409L354 404L360 404L360 406L363 407L363 402L366 400L368 400L369 402L373 402L375 399L375 394L376 392L378 392L375 391L376 387L373 385L374 377L370 375L372 369L375 368L375 366L378 363L376 361L377 358L374 354L371 353L372 347L370 345L365 349L363 349L363 345L361 345L361 347L356 348L350 343L345 343L338 340L335 341L337 345L336 346L334 347L332 345L328 345L323 348L321 353L322 359L320 360L322 360L322 372L324 372L316 380L324 380L323 382L325 384L322 385L323 388L321 390L323 390L323 393L327 395L329 391L331 391L330 393L333 394L337 389L344 390L343 394L346 395L344 401L340 406L341 407L344 404L346 406L347 411L349 409L352 409zM324 384L324 384z" id="湖南省"/><path class="leaflet-interactive" stroke="#3388ff" stroke-opacity="0" stroke-width="3" stroke-linecap="round" stroke-linejoin="round" fill="#eee" fill-opacity="0.5" fill-rule="evenodd" d="M370 441L372 435L371 434L374 438L378 436L380 436L380 438L382 437L381 436L383 434L385 437L388 433L392 435L394 433L396 434L403 432L404 429L407 428L408 424L409 425L411 423L408 418L409 416L406 412L407 410L404 411L402 409L403 408L401 409L396 407L395 412L392 409L390 409L385 410L385 412L382 411L380 413L377 410L380 408L381 405L383 405L381 401L375 403L376 401L369 402L365 400L364 402L362 402L364 404L364 407L362 407L359 404L355 404L351 411L353 413L353 415L351 416L352 419L348 421L348 423L346 423L346 431L341 436L340 435L338 437L339 440L335 442L334 441L334 445L331 444L328 448L327 447L328 450L326 458L330 465L334 465L336 463L335 459L334 460L332 456L334 453L341 450L353 448L353 446L356 447L360 446L361 444L364 445L365 442L366 445L370 441zM409 426L411 426L410 425zM362 446L361 449L362 447zM358 448L360 448L358 448zM378 443L378 443zM334 453L336 455L337 453L334 453zM357 447L358 447zM335 455L334 454L332 456L335 457L336 455zM372 444L372 443zM372 444L372 444zM365 445L365 445zM373 438L373 438zM377 443L377 443zM377 444L376 443zM407 458L406 459L408 459L408 461L407 458zM364 445L364 445zM334 459L334 459zM337 456L337 457zM336 464L336 463zM397 454L398 455L397 454zM397 456L397 456zM396 434L396 434zM396 434L396 434z" id="广东省"/><path class="leaflet-interactive" stroke="#3388ff" stroke-opacity="0" stroke-width="3" stroke-linecap="round" stroke-linejoin="round" fill="#eee" fill-opacity="0.5" fill-rule="evenodd" d="M324 393L321 397L317 397L319 397L318 400L316 398L314 402L311 399L307 404L304 405L303 402L302 403L298 399L296 399L296 402L294 404L287 406L284 411L276 406L270 411L267 409L267 412L269 414L274 413L276 418L285 417L286 424L282 424L280 426L281 427L279 427L279 429L283 432L286 431L288 433L294 433L290 438L292 440L292 444L293 443L300 448L301 447L311 449L314 447L319 448L320 451L327 450L329 445L333 445L333 441L337 441L337 437L338 438L338 436L342 435L346 431L345 426L346 423L348 423L348 421L352 419L351 416L353 414L353 409L349 409L347 411L345 404L341 407L340 406L345 400L344 397L346 396L343 394L344 391L341 389L337 389L333 394L330 393L330 391L327 393L328 395L324 393zM274 407L274 407zM319 455L319 455z" id="广西壮族自治区"/><path class="leaflet-interactive" stroke="#3388ff" stroke-opacity="0" stroke-width="3" stroke-linecap="round" stroke-linejoin="round" fill="#eee" fill-opacity="0.5" fill-rule="evenodd" d="M331 467L326 467L320 470L314 476L314 486L325 490L331 487L333 484L335 484L337 476L341 472L341 467L331 467zM346 503L347 502L346 503zM417 525L419 526L417 525zM349 513L350 513zM348 513L347 514L349 512zM352 512L352 511zM349 510L350 510zM355 504L355 504zM358 516L359 515L357 515zM357 512L358 512zM356 505L356 504zM347 510L347 510zM382 568L382 568zM347 510L348 510zM406 568L406 568zM349 509L349 509zM358 510L359 509L358 510zM350 515L350 515zM383 514L383 513zM383 568L383 568zM377 515L378 515zM380 520L381 520zM376 515L377 515zM406 511L406 511zM364 474L363 474zM380 515L380 515zM373 478L373 477zM391 540L391 539zM373 522L374 522zM355 507L355 506zM355 519L355 519zM374 517L375 517zM386 515L385 516zM360 511L360 510zM343 469L343 469zM360 512L360 511zM382 520L382 520z" id="海南省"/><path class="leaflet-interactive" stroke="#3388ff" stroke-opacity="0" stroke-width="3" stroke-linecap="round" stroke-linejoin="round" fill="#eee" fill-opacity="0.5" fill-rule="evenodd" d="M288 361L290 361L289 358L291 360L290 362L292 362L294 360L293 358L297 356L300 357L300 353L304 352L305 355L309 354L312 360L314 360L313 363L314 364L315 361L315 365L318 366L322 360L320 360L322 358L322 355L319 352L320 351L317 350L316 346L315 347L315 345L312 344L313 339L311 336L319 333L320 335L322 335L328 330L330 330L332 326L331 323L326 321L326 319L321 319L319 316L311 313L312 314L310 316L313 319L307 326L307 330L300 332L301 333L297 341L292 342L290 338L287 339L282 337L279 340L281 344L279 344L279 346L276 347L278 350L277 351L281 351L281 355L287 357L288 361zM319 334L319 334zM279 340L279 340zM319 334L319 334zM296 341L296 341z" id="重庆市"/><path class="leaflet-interactive" stroke="#3388ff" stroke-opacity="0" stroke-width="3" stroke-linecap="round" stroke-linejoin="round" fill="#eee" fill-opacity="0.5" fill-rule="evenodd" d="M229 378L229 380L232 383L231 384L233 384L232 387L234 391L235 390L240 393L245 389L247 391L251 387L248 380L249 377L256 370L255 367L260 364L260 359L265 360L264 363L267 365L265 367L268 370L275 367L276 372L287 371L288 370L286 366L284 367L280 363L280 361L283 360L284 358L288 362L288 360L286 356L281 355L281 351L277 351L278 350L276 348L281 343L281 341L279 340L282 336L286 339L291 338L292 342L297 341L301 334L300 332L304 330L305 331L307 329L307 325L313 319L310 316L312 314L311 313L313 313L305 313L303 310L298 310L296 308L297 307L293 305L289 307L282 304L280 306L277 303L278 305L276 307L267 306L264 303L266 303L266 297L264 297L262 293L255 291L254 292L249 284L240 289L244 294L244 296L242 296L241 299L240 298L238 300L236 298L238 296L236 294L236 298L234 300L232 300L231 298L228 299L230 306L224 306L222 308L220 305L217 307L217 303L215 303L214 301L212 305L209 303L207 304L207 302L202 299L198 288L193 287L192 285L189 286L190 288L186 290L186 294L190 296L187 300L188 301L186 305L196 311L200 321L203 323L202 325L200 325L204 332L204 346L207 364L209 366L209 362L212 357L217 362L216 363L218 364L216 366L220 372L220 370L223 369L227 377L229 378zM287 339L287 339zM295 341L295 341zM279 339L279 339z" id="四川省"/><path class="leaflet-interactive" stroke="#3388ff" stroke-opacity="0" stroke-width="3" stroke-linecap="round" stroke-linejoin="round" fill="#eee" fill-opacity="0.5" fill-rule="evenodd" d="M321 362L318 366L315 365L316 363L313 362L314 361L313 359L311 359L309 354L306 355L304 354L304 352L300 352L300 356L298 358L297 356L293 358L293 362L290 362L291 359L289 357L290 360L288 362L284 358L280 361L280 363L284 367L287 367L287 371L278 371L276 372L275 376L274 375L272 377L268 377L267 375L263 377L261 376L257 380L259 382L258 386L261 387L263 385L266 385L269 388L267 390L268 391L265 398L267 400L268 399L267 401L271 404L270 403L267 409L269 411L273 409L275 406L278 407L279 409L284 410L286 409L287 406L296 403L295 402L298 399L302 403L303 402L304 405L307 404L309 402L308 401L310 401L310 399L314 402L316 398L318 400L319 397L317 397L321 397L324 393L323 390L321 390L323 388L322 385L324 383L324 379L319 379L317 381L316 380L320 375L324 373L322 371L323 364L321 364L321 362zM324 383L323 383zM324 384L324 384z" id="贵州省"/><path class="leaflet-interactive" stroke="#3388ff" stroke-opacity="0" stroke-width="3" stroke-linecap="round" stroke-linejoin="round" fill="#eee" fill-opacity="0.5" fill-rule="evenodd" d="M276 372L275 367L268 370L265 368L266 365L264 361L266 360L260 360L260 363L255 366L255 371L251 376L249 376L248 380L251 387L247 391L245 390L246 389L237 393L235 390L234 391L232 387L233 384L231 384L232 383L227 377L225 371L223 369L220 370L220 372L218 370L216 367L216 365L218 365L216 363L217 362L212 357L210 359L211 360L209 362L209 366L207 364L206 352L204 352L205 355L203 356L203 358L202 355L200 355L200 361L202 364L200 366L198 366L196 363L195 364L196 372L198 374L198 372L201 373L201 396L199 395L198 398L196 398L195 401L191 403L191 408L188 409L188 413L190 415L188 419L189 420L195 417L203 417L201 419L204 427L203 428L205 430L208 429L211 432L209 432L210 433L206 441L213 442L216 444L215 445L216 447L218 447L218 450L224 449L228 446L229 451L235 454L237 452L235 451L236 445L233 440L235 439L235 437L241 438L244 434L250 438L254 434L256 436L259 435L261 437L263 433L266 435L271 432L271 429L276 427L278 427L279 429L279 427L281 427L280 426L282 424L286 424L285 417L278 418L275 416L274 413L269 414L267 412L267 408L271 403L268 401L268 399L267 400L265 398L265 396L266 397L269 388L266 384L265 386L258 386L259 382L257 380L261 375L262 377L267 375L267 377L271 377L274 375L275 376L276 373z" id="云南省"/><path class="leaflet-interactive" stroke="#3388ff" stroke-opacity="0" stroke-width="3" stroke-linecap="round" stroke-linejoin="round" fill="#eee" fill-opacity="0.5" fill-rule="evenodd" d="M99 259L93 256L92 257L90 255L89 256L86 254L80 254L60 258L56 264L55 263L49 265L48 263L40 266L38 269L24 269L22 265L19 266L16 264L15 267L13 267L12 270L9 271L1 269L-9 270L-8 272L-12 275L-11 276L-13 277L-14 281L-20 283L-23 282L-23 284L-27 288L-27 293L-20 303L-20 308L-23 311L-26 308L-26 306L-30 308L-30 313L-26 317L-26 324L-21 329L-15 329L-10 335L-9 334L0 338L1 342L3 342L2 341L5 336L11 338L12 337L12 339L15 342L20 346L25 347L27 351L30 353L34 351L37 357L39 357L43 361L46 359L47 364L53 364L57 369L58 366L61 369L65 367L70 370L81 370L81 368L82 369L87 366L89 368L88 375L91 378L93 376L92 373L99 365L103 365L109 368L110 367L114 370L117 367L119 368L121 371L120 374L123 374L126 377L126 383L132 381L143 382L151 373L162 369L163 366L168 364L176 366L178 369L181 369L183 371L186 368L186 364L188 364L187 363L189 361L194 366L196 364L195 363L197 364L198 367L201 364L200 355L202 355L203 358L204 357L203 356L205 352L205 341L203 333L204 332L200 326L200 324L203 324L199 320L195 311L191 308L185 308L185 313L180 316L178 315L180 319L176 319L175 316L173 316L173 321L170 318L168 320L166 318L165 319L163 315L164 313L162 313L162 311L160 312L161 311L155 307L151 309L150 308L149 310L145 308L142 309L139 306L128 306L126 303L122 303L119 300L112 301L106 298L105 296L103 296L102 292L98 288L100 285L100 277L97 276L96 269L99 268L100 263L95 262L95 260L98 259z" id="西藏自治区"/><path class="leaflet-interactive" stroke="#3388ff" stroke-opacity="0" stroke-width="3" stroke-linecap="round" stroke-linejoin="round" fill="#eee" fill-opacity="0.5" fill-rule="evenodd" d="M334 280L332 279L336 267L334 247L339 238L335 230L336 227L338 227L340 224L341 217L343 216L344 213L342 209L337 213L332 211L331 214L328 213L329 215L318 227L317 229L319 231L317 233L316 231L316 237L308 237L304 234L300 236L298 241L299 248L304 249L307 252L314 255L314 269L312 271L304 270L303 271L305 275L301 276L298 276L295 273L290 273L291 278L288 280L292 284L290 284L291 286L289 288L291 293L290 295L282 295L281 298L284 299L282 303L278 303L279 306L282 304L289 307L293 305L296 306L298 310L300 308L306 313L312 312L317 316L325 319L325 307L330 308L331 305L327 303L326 300L324 300L326 298L335 300L336 298L336 300L338 301L341 298L341 294L337 290L337 286L334 284L334 280zM341 295L341 296zM285 305L285 305z" id="陕西省"/><path class="leaflet-interactive" stroke="#3388ff" stroke-opacity="0" stroke-width="3" stroke-linecap="round" stroke-linejoin="round" fill="#eee" fill-opacity="0.5" fill-rule="evenodd" d="M290 264L290 268L288 271L286 268L283 269L285 268L282 268L282 266L278 264L276 261L279 258L275 251L276 248L272 246L270 243L268 243L269 240L263 240L258 235L255 234L255 227L260 223L261 219L264 216L262 211L255 212L250 216L244 214L239 215L237 216L239 219L236 222L232 221L229 218L230 217L225 217L225 211L221 212L219 208L212 204L209 204L213 203L215 200L218 199L219 193L216 189L206 190L206 192L204 191L202 192L202 194L201 191L197 194L197 189L189 181L191 178L184 160L175 161L172 163L170 165L172 172L162 179L160 176L156 180L154 180L146 188L145 193L135 194L133 208L129 214L130 217L133 215L137 215L138 219L146 219L145 220L147 222L151 221L154 226L161 226L164 228L167 226L173 230L175 228L178 229L178 225L182 223L181 217L183 214L194 221L196 217L199 218L202 216L206 218L205 219L214 227L218 229L216 225L217 224L221 228L225 230L226 229L226 231L229 234L234 234L240 238L246 245L244 245L244 247L247 250L245 250L250 257L250 261L248 263L247 262L246 264L248 267L247 268L245 266L243 269L242 268L243 271L238 277L238 280L241 283L237 287L227 283L224 286L229 291L229 293L233 292L234 295L237 294L238 296L236 298L238 300L240 298L241 299L242 296L244 296L240 289L246 287L245 286L248 284L252 287L252 291L263 294L266 298L265 303L268 306L276 307L278 303L282 303L284 299L281 298L282 295L291 294L289 289L292 283L288 281L290 278L290 274L294 273L300 276L305 274L303 271L304 270L312 271L314 269L312 262L315 260L315 258L313 254L302 249L297 244L292 244L292 249L288 253L290 253L290 257L295 258L295 263L293 265L290 264zM285 267L285 267zM248 255L248 256zM285 268L285 269zM290 264L290 264z" id="甘肃省"/><path class="leaflet-interactive" stroke="#3388ff" stroke-opacity="0" stroke-width="3" stroke-linecap="round" stroke-linejoin="round" fill="#eee" fill-opacity="0.5" fill-rule="evenodd" d="M248 255L248 253L245 250L247 250L244 246L245 243L238 236L237 237L234 234L231 235L226 231L226 229L225 230L224 228L220 228L217 224L216 225L218 229L214 227L205 219L206 218L202 216L200 218L197 217L194 221L183 214L181 216L181 224L180 223L178 225L178 228L174 228L174 230L170 229L167 226L165 228L161 226L154 227L152 221L145 221L146 220L144 219L139 219L138 215L133 215L127 218L110 222L107 225L103 225L105 229L107 227L108 236L115 240L117 246L113 248L112 247L110 250L111 253L114 253L115 259L112 260L103 257L101 259L96 260L95 262L100 263L99 268L96 269L97 275L100 276L100 286L98 288L102 292L102 294L110 300L119 300L122 303L126 303L128 306L133 305L137 307L138 306L142 309L145 308L149 310L155 306L158 310L164 313L163 316L165 319L169 318L173 321L172 318L174 316L178 320L179 315L183 315L185 311L186 312L185 308L190 308L186 306L186 302L188 302L187 300L190 296L186 294L186 290L188 290L190 288L189 286L192 285L194 287L198 287L202 299L206 301L207 304L208 303L213 305L214 302L217 303L217 307L219 305L221 305L223 308L230 306L228 299L231 298L231 300L234 300L236 296L233 292L230 293L229 290L226 289L225 284L226 283L237 287L241 283L238 280L238 276L243 272L242 268L243 269L244 266L247 268L248 267L246 264L249 263L249 259L251 257L248 256z" id="青海省"/><path class="leaflet-interactive" stroke="#3388ff" stroke-opacity="0" stroke-width="3" stroke-linecap="round" stroke-linejoin="round" fill="#eee" fill-opacity="0.5" fill-rule="evenodd" d="M298 245L300 236L303 235L298 230L290 228L295 218L292 212L287 214L283 220L283 228L281 230L281 235L265 240L269 240L268 243L275 246L277 250L275 250L275 252L279 258L276 261L288 271L290 269L290 264L292 265L295 263L295 259L291 257L288 252L289 253L290 250L292 249L290 247L291 244L298 245zM285 268L283 268L285 268zM285 268L285 268z" id="宁夏回族自治区"/><path class="leaflet-interactive" stroke="#3388ff" stroke-opacity="0" stroke-width="3" stroke-linecap="round" stroke-linejoin="round" fill="#eee" fill-opacity="0.5" fill-rule="evenodd" d="M175 161L169 153L165 141L163 141L164 138L158 137L142 126L119 124L113 122L111 120L110 114L114 109L112 104L114 102L114 98L108 88L107 83L103 80L103 78L99 79L96 75L91 76L90 74L88 74L86 70L79 65L80 64L77 61L77 55L73 57L68 56L65 58L65 64L61 68L60 67L53 70L51 74L53 89L50 92L48 92L45 95L43 93L33 93L24 89L23 90L14 114L14 117L18 120L17 123L14 121L11 122L7 120L3 122L2 121L0 123L-6 123L-13 127L-7 131L-7 141L-3 149L-3 155L-7 157L-5 159L-7 159L-10 163L-8 169L-10 169L-10 171L-16 175L-27 179L-27 181L-28 180L-32 182L-37 186L-36 187L-47 187L-49 189L-50 194L-53 197L-54 196L-60 198L-62 194L-61 193L-66 196L-70 195L-70 198L-80 202L-82 205L-81 209L-86 212L-82 217L-83 222L-81 224L-76 222L-70 226L-70 237L-67 240L-67 242L-75 244L-73 246L-70 245L-70 247L-64 247L-63 250L-59 250L-57 253L-58 258L-55 262L-56 263L-51 262L-51 264L-47 266L-41 268L-34 268L-32 278L-25 283L-13 281L-11 276L-12 275L-7 268L-3 270L4 269L9 271L12 270L11 268L13 268L16 264L19 266L22 265L24 269L38 269L41 266L48 263L51 265L55 264L58 262L60 258L65 256L67 257L73 254L74 256L86 254L97 259L101 259L103 257L112 260L115 259L114 254L110 251L110 249L112 247L113 248L117 246L117 244L115 240L109 236L108 227L105 229L103 226L107 225L110 222L121 220L128 217L133 208L135 194L145 193L146 188L154 180L156 180L160 176L162 178L170 174L172 172L170 166L172 163z" id="新疆维吾尔自治区"/><path class="leaflet-interactive" stroke="#3388ff" stroke-opacity="0" stroke-width="3" stroke-linecap="round" stroke-linejoin="round" fill="#eee" fill-opacity="0.5" fill-rule="evenodd" d="M448 438L451 440L451 444L453 445L454 437L460 429L462 418L465 413L464 409L466 406L461 402L454 407L446 421L444 422L444 430L447 437zM495 395L495 394zM483 397L483 397zM439 424L439 425zM485 395L485 394zM438 423L437 424L438 423zM438 426L438 427zM438 423L439 423zM467 398L467 398zM460 435L461 435zM461 442L460 443L462 443L461 442zM467 400L467 400zM437 428L437 428zM447 439L448 439z" id="台湾省"/><path class="leaflet-interactive" stroke="#3388ff" stroke-opacity="0" stroke-width="3" stroke-linecap="round" stroke-linejoin="round" fill="#eee" fill-opacity="0.5" fill-rule="evenodd" d="M375 437L373 441L376 439L378 441L378 439L380 439L377 438L379 437L376 437zM377 441L376 440L377 441zM379 439L379 439zM379 439L379 439zM379 439L379 439zM379 440L379 440zM379 439L379 439zM379 439L379 439zM379 440L379 440z" id="香港特别行政区"/><path class="leaflet-interactive" stroke="#3388ff" stroke-opacity="0" stroke-width="3" stroke-linecap="round" stroke-linejoin="round" fill="#eee" fill-opacity="0.5" fill-rule="evenodd" d="M370 442L370 442zM370 441L370 441z" id="澳门特别行政区"/><path class="leaflet-interactive" stroke="#3388ff" stroke-opacity="0" stroke-width="3" stroke-linecap="round" stroke-linejoin="round" fill="#eee" fill-opacity="0.5" fill-rule="evenodd" d="M472 425L475 411L472 425zM457 458L465 447L457 458zM437 492L444 479L437 492zM433 527L433 515L433 527zM430 568L432 563L430 567zM332 568L333 561L332 568zM328 525L322 513L327 522z" id="100000_JD"/></g></svg>